<svg width="240" height="64" viewBox="0 0 240 64" fill="none" xmlns="http://www.w3.org/2000/svg">
<g id="Group 474">
<g id="GoFood">
<g id="Logo Gofood Baru">
<path id="Fill 3" fill-rule="evenodd" clip-rule="evenodd" d="M99.1576 33.6631C99.2644 32.5478 99.1705 31.4146 98.3326 30.453C97.6166 29.631 96.7114 29.1602 95.697 28.8397C93.6917 28.2063 91.077 28.9436 89.7835 30.4805C88.7276 31.7348 88.5615 33.2093 88.7761 34.7274C89.0718 36.8191 90.2778 38.1799 92.3522 38.655C92.9954 38.8021 93.6789 38.8945 94.3325 38.8488C96.0264 38.7301 97.5389 38.1956 98.5822 36.7072C99.2236 35.7923 99.2079 34.775 99.1576 33.6631ZM99.4204 41.2528C94.6786 45.2447 88.0153 43.0407 85.547 39.7359C82.7235 35.9558 82.9855 30.371 86.155 27.006C89.3288 23.6361 95.7952 23.0246 99.386 26.2388C99.386 25.5108 99.386 24.862 99.386 24.165C101.051 24.165 102.619 24.165 104.261 24.165C104.261 24.4472 104.261 24.7109 104.261 24.9742C104.261 31.0146 104.269 37.055 104.258 43.0954C104.251 46.8366 102.468 49.5024 99.1849 51.1023C95.1124 53.0862 88.9677 52.0405 85.6778 48.925C85.5004 48.7568 85.2839 48.6297 85.3677 48.5389C86.3248 47.4777 87.2735 46.4085 88.256 45.3714C88.3235 45.3003 88.6862 45.4156 88.8384 45.5374C91.077 47.3256 93.599 47.8063 96.3104 47.0443C98.2911 46.4879 99.4047 44.8403 99.4201 42.7699C99.4235 42.2871 99.4204 41.8042 99.4204 41.2528Z" fill="#969696"/>
<path id="Fill 6" fill-rule="evenodd" clip-rule="evenodd" d="M122.745 33.8088C122.915 30.8515 120.599 28.6073 117.758 28.6169C114.523 28.6277 112.426 30.6725 112.425 33.845C112.425 36.8576 114.596 39.0294 117.647 38.9923C120.979 38.9518 122.895 36.4517 122.745 33.8088ZM117.768 24.1196C121.432 24.1873 124.53 25.579 126.572 28.9072C127.555 30.5087 127.904 32.2883 127.848 34.1769C127.788 36.2217 127.155 38.0427 125.926 39.6458C124.39 41.6498 122.323 42.8077 119.871 43.2491C116.701 43.8194 113.718 43.3551 111.079 41.3932C106.823 38.2291 106.062 31.887 109.415 27.8021C111.554 25.1978 114.372 24.1499 117.768 24.1196Z" fill="#969696"/>
<path id="Fill 7" fill-rule="evenodd" clip-rule="evenodd" d="M161.191 33.797C161.308 30.7878 159.085 28.7229 156.4 28.6128C152.803 28.4654 150.893 30.9247 150.865 33.6971C150.833 36.7861 152.962 38.9753 156.029 38.9599C159.26 38.9434 161.28 36.7017 161.191 33.797ZM166.359 33.7509C166.412 39.0025 162.253 42.7687 157.679 43.3365C154.366 43.748 151.397 43.0654 148.871 40.8086C145.237 37.5629 144.678 31.8737 147.679 28.0401C149.917 25.182 152.93 23.9709 156.531 24.1264C158.898 24.2284 161.026 24.9329 162.87 26.4404C164.436 27.7201 165.508 29.3402 165.991 31.3151C166.185 32.1092 166.241 32.938 166.359 33.7509Z" fill="#969696"/>
<path id="Fill 8" fill-rule="evenodd" clip-rule="evenodd" d="M173.449 33.771C173.444 36.856 175.517 38.9478 178.601 38.9685C181.605 38.9892 183.795 36.805 183.798 33.7865C183.801 30.8459 181.684 28.6877 178.882 28.603C175.645 28.5053 173.362 30.7294 173.449 33.771ZM168.343 33.1389C168.254 28.9857 171.819 25.1091 176.297 24.3245C180.314 23.6204 183.916 24.5051 186.705 27.7109C187.877 29.0571 188.502 30.6617 188.769 32.4431C189.117 34.772 188.657 36.9197 187.415 38.8652C185.757 41.4646 183.322 42.8868 180.294 43.3208C177.352 43.7427 174.624 43.2339 172.203 41.4377C169.627 39.5274 168.347 36.9444 168.343 33.1389Z" fill="#969696"/>
<path id="Fill 5" fill-rule="evenodd" clip-rule="evenodd" d="M206.604 33.8009C206.591 33.8 206.577 33.799 206.564 33.7984C206.564 33.4618 206.551 33.1249 206.567 32.7892C206.627 31.4795 206.068 30.4408 205.001 29.7929C204.183 29.2962 203.253 28.8752 202.322 28.7018C200.15 28.2984 197.857 29.1098 196.696 31.0294C195.257 33.4077 195.979 36.8104 198.267 38.1254C199.833 39.0255 201.522 39.1278 203.234 38.645C204.794 38.2051 206.023 37.3251 206.461 35.6664C206.617 35.0735 206.562 34.4244 206.604 33.8009ZM206.544 17.7313C208.305 17.7313 209.928 17.7313 211.601 17.7313C211.601 26.1204 211.601 34.4791 211.601 42.8734C210.084 42.8734 208.576 42.8734 206.993 42.8734C206.993 42.3565 206.993 41.8317 206.993 41.113C204.776 43.2255 202.215 43.6771 199.477 43.3834C196.703 43.0857 194.377 41.8963 192.678 39.6141C189.993 36.0086 190.337 30.4597 193.496 27.0415C196.446 23.8505 202.391 22.8972 206.544 26.0017C206.544 23.219 206.544 20.5025 206.544 17.7313Z" fill="#969696"/>
<path id="Fill 9" fill-rule="evenodd" clip-rule="evenodd" d="M138.802 28.9674C138.802 33.6737 138.802 38.2501 138.802 42.8673C137.1 42.8673 135.442 42.8673 133.719 42.8673C133.719 38.2489 133.719 33.6561 133.719 29.0147C132.432 29.0147 131.21 28.9943 129.99 29.0249C129.516 29.037 129.369 28.8806 129.378 28.4126C129.402 27.1604 129.386 25.9072 129.386 24.5907C130.851 24.5907 132.246 24.5907 133.75 24.5907C133.75 23.7048 133.655 22.8689 133.767 22.0618C134.108 19.6075 135.613 18.0202 138.098 17.7466C140.056 17.5312 142.048 17.6097 144.025 17.5862C144.162 17.5847 144.419 17.8208 144.421 17.951C144.451 19.2696 144.439 20.5892 144.439 22.0053C143.037 22.0053 141.706 21.9979 140.374 22.0074C139.194 22.0161 138.806 22.4312 138.807 23.6473C138.808 23.9338 138.807 24.2204 138.807 24.5592C141.088 24.5592 143.311 24.5592 145.583 24.5592C145.583 26.0367 145.583 27.4627 145.583 28.9674C143.362 28.9674 141.125 28.9674 138.802 28.9674Z" fill="#969696"/>
<path id="Fill 1" fill-rule="evenodd" clip-rule="evenodd" d="M41.4309 26.945C41.4309 28.0877 41.4399 29.2306 41.4272 30.3733C41.4202 31.001 40.9511 31.5081 40.3981 31.5306C39.8317 31.554 39.3231 31.0957 39.3206 30.4533C39.3169 29.5238 39.3522 28.5907 39.4353 27.665C39.5208 26.7112 39.6981 25.7664 39.8074 24.8142C39.9116 23.9097 39.2322 23.0805 38.3412 22.9812C37.5399 22.892 36.7796 23.5625 36.6756 24.4586C36.5482 25.5572 36.3675 26.6539 36.3168 27.7565C36.2372 29.4904 36.1269 31.2368 36.2483 32.9623C36.4134 35.3027 37.5658 37.1548 39.5123 38.481C40.447 39.118 40.9858 40.0064 41.0589 41.1388C41.1461 42.4865 41.1849 43.8371 41.2437 45.1866C41.2733 45.8632 41.7741 46.5594 42.3877 46.7733C43.0879 47.0174 43.7564 46.8397 44.2592 46.2908C44.6384 45.877 44.7479 45.3718 44.7672 44.8362C44.803 43.8466 44.8182 42.8562 44.8651 41.8672C44.8848 41.4518 44.9265 41.0299 45.0233 40.6269C45.2458 39.7006 45.8511 39.0514 46.6252 38.5476C47.8563 37.7467 48.696 36.6343 49.2727 35.2876C49.8018 34.0522 49.8505 32.7441 49.8407 31.4462C49.8281 29.8295 49.7124 28.212 49.5932 26.5987C49.5341 25.7949 49.3919 24.9946 49.2427 24.2014C49.1181 23.5389 48.4562 22.9973 47.8161 22.9607C47.2012 22.9255 46.6165 23.3625 46.3266 23.9833C46.0401 24.5962 46.2516 25.1873 46.3007 25.7916C46.4254 27.3296 46.5576 28.8679 46.6305 30.4088C46.6441 30.6952 46.4511 31.0424 46.2534 31.2755C45.9906 31.5859 45.5975 31.5995 45.2214 31.4352C44.7681 31.2372 44.5942 30.8514 44.5921 30.3882C44.5837 28.313 44.5899 26.2381 44.5827 24.1629C44.5819 23.9101 44.5535 23.6527 44.5005 23.4057C44.3164 22.5467 43.6226 21.9879 42.852 22.0586C42.0361 22.1335 41.4356 22.8403 41.4321 23.7421C41.4278 24.8097 41.4311 25.8773 41.4309 26.945ZM65.3103 31.8565C65.2833 30.6375 64.9831 29.1282 64.501 27.6588C63.9531 25.9884 63.1815 24.446 61.8675 23.2276C60.4904 21.9506 58.5774 21.6843 56.9389 22.5899C55.5415 23.3623 54.7004 24.6286 54.0337 26.0266C53.1456 27.8889 52.7208 29.8765 52.5576 31.9235C52.4637 33.1051 52.6057 34.2571 53.0964 35.3526C53.6517 36.5919 54.5325 37.5361 55.6225 38.3196C56.4846 38.9393 56.927 39.8026 56.9375 40.8901C56.9455 41.7001 56.9897 42.5103 57.038 43.3192C57.0817 44.0508 57.0994 44.7902 57.2266 45.5086C57.3731 46.3368 58.2478 46.9566 59.0313 46.8912C59.9452 46.8151 60.6838 46.0622 60.7267 45.1622C60.7911 43.8141 60.8737 42.4666 60.9137 41.1179C60.952 39.8206 61.4984 38.8576 62.5467 38.0889C64.5182 36.6436 65.4629 34.6665 65.3103 31.8565ZM50.8768 55.9991C38.8625 56.0802 28.7954 46.1077 29.0032 33.6424C29.2017 21.7383 38.7742 11.9053 51.0593 12.0007C63.3025 12.0959 72.718 22.189 72.7299 33.9989C72.7425 46.2124 62.717 56.1083 50.8768 55.9991Z" fill="#969696"/>
<path id="Fill 28" fill-rule="evenodd" clip-rule="evenodd" d="M65.3117 31.8565C65.2848 30.6375 64.9845 29.1282 64.5024 27.6589C63.9545 25.9884 63.1829 24.446 61.8689 23.2276C60.4918 21.9507 58.5788 21.6844 56.9403 22.59C55.5429 23.3623 54.7018 24.6287 54.0352 26.0267C53.147 27.8889 52.7222 29.8765 52.559 31.9236C52.4651 33.1051 52.6071 34.2571 53.0979 35.3526C53.6531 36.5919 54.5339 37.5362 55.6239 38.3197C56.486 38.9393 56.9284 39.8027 56.9389 40.8901C56.9469 41.7001 56.9911 42.5103 57.0394 43.3193C57.0832 44.0508 57.1008 44.7903 57.228 45.5086C57.3746 46.3368 58.2492 46.9567 59.0328 46.8913C59.9466 46.8151 60.6852 46.0623 60.7282 45.1623C60.7925 43.8141 60.8751 42.4667 60.9152 41.1179C60.9534 39.8207 61.4998 38.8576 62.5481 38.089C64.5197 36.6436 65.4644 34.6666 65.3117 31.8565Z" fill="#FFFFFE"/>
<path id="Fill 29" fill-rule="evenodd" clip-rule="evenodd" d="M41.4317 26.9452C41.4317 28.0878 41.4407 29.2307 41.428 30.3734C41.421 31.0011 40.9518 31.5082 40.3988 31.5308C39.8325 31.5541 39.3238 31.0959 39.3214 30.4535C39.3177 29.5239 39.353 28.5908 39.436 27.6652C39.5215 26.7114 39.6989 25.7665 39.8082 24.8144C39.9124 23.9098 39.233 23.0806 38.342 22.9813C37.5407 22.8921 36.7803 23.5627 36.6764 24.4587C36.5489 25.5573 36.3683 26.6541 36.3176 27.7566C36.238 29.4906 36.1277 31.237 36.2491 32.9625C36.4141 35.3028 37.5666 37.155 39.5131 38.4811C40.4477 39.1182 40.9866 40.0066 41.0597 41.1389C41.1469 42.4866 41.1857 43.8372 41.2445 45.1868C41.2741 45.8633 41.7749 46.5595 42.3885 46.7734C43.0886 47.0176 43.7571 46.8399 44.26 46.291C44.6392 45.8772 44.7487 45.372 44.768 44.8363C44.8038 43.8467 44.819 42.8563 44.8658 41.8674C44.8856 41.4519 44.9273 41.0301 45.0241 40.6271C45.2466 39.7008 45.8518 39.0516 46.6259 38.5478C47.8571 37.7469 48.6968 36.6344 49.2734 35.2877C49.8026 34.0524 49.8513 32.7442 49.8414 31.4464C49.8289 29.8297 49.7132 28.2122 49.594 26.5988C49.5348 25.7951 49.3926 24.9948 49.2434 24.2016C49.1189 23.5391 48.457 22.9974 47.8168 22.9608C47.202 22.9256 46.6173 23.3626 46.3274 23.9835C46.0409 24.5963 46.2523 25.1874 46.3015 25.7917C46.4262 27.3298 46.5583 28.868 46.6313 30.409C46.6449 30.6953 46.4519 31.0425 46.2542 31.2757C45.9914 31.586 45.5982 31.5997 45.2222 31.4354C44.7688 31.2374 44.595 30.8515 44.5929 30.3883C44.5845 28.3132 44.5907 26.2382 44.5835 24.1631C44.5826 23.9102 44.5543 23.6529 44.5013 23.4058C44.3171 22.5468 43.6234 21.988 42.8527 22.0588C42.0369 22.1337 41.4364 22.8404 41.4329 23.7423C41.4286 24.8098 41.4319 25.8774 41.4317 26.9452Z" fill="#FFFFFE"/>
</g>
</g>
</g>
</svg>
