<svg width="535" height="547" viewBox="0 0 535 547" fill="none" xmlns="http://www.w3.org/2000/svg">
<g clip-path="url(#clip0)">
<path d="M298.702 153.976L291.437 116.063L285.251 82.6755V82.6285C285.197 82.7561 285.15 82.8904 285.097 83.0113C285.855 86.9328 298.165 150.833 298.434 154.076L298.702 153.976Z" fill="#F8F8F8"/>
<path d="M287.137 74.7655V74.7182C287.14 74.7564 287.14 74.7949 287.137 74.8332V74.7655Z" fill="#F8F8F8"/>
<path d="M472.192 183.045C458.989 160.389 447.866 140.606 437.192 123.281C394.853 118.48 370.413 99.3087 349.199 99.3087C346.731 99.3087 342.893 100.316 341.437 100.316L338.217 106.359L338.311 114.679L343.296 115.619L350.004 119.199L354.761 123.637L360.584 132.313L360.188 132.575C363.053 133.683 365.307 135.389 366.575 137.866C368.232 141.09 368.091 144.877 366.77 148.805C377.027 187.242 370.372 244.407 366.542 247.583C360.745 252.391 298.95 236.168 293.818 229.01C291.685 226.055 292.121 205.836 295.952 183.166L296.441 182.931C288.022 183.938 280.461 182.931 275.718 178.197C264.903 167.372 270.203 91.4991 270.794 83.5149C269.082 79.4689 268.237 75.109 268.311 70.716C268.352 60.2271 272.598 51.7058 277.858 51.7058C280.199 51.7058 282.346 53.4047 284.003 56.2116L283.332 54.5999H285.801L288.397 56.3324L291.752 62.423L292.584 67.0765L292.329 83.6425L302.137 140.116L308.095 139.532L311.12 132.817L317.675 123.604L322.807 118.01V114.464C312.851 112.759 305.096 99.1273 305.096 82.5681C305.096 81.3191 305.136 80.0835 305.223 78.8748L305.787 71.7703L306.833 69.4267C306.88 69.2454 306.927 69.0641 306.981 68.8895C306.209 68.4665 303.626 66.0894 303.626 57.897C303.626 41.7809 321.445 33.1186 336.386 29.761C316.514 21.1658 294.274 14.4978 269.781 9.07873C219.834 -1.75933 160.843 -7.43354 125.139 18.8021C89.4346 45.0377 77.03 102.834 56.6487 166.942C36.1197 231.044 7.62076 301.438 22.3332 365.707C36.8845 429.816 94.7882 487.787 158.24 495.912C221.692 504.037 290.625 462.337 363.865 434.57C437.105 406.803 514.632 393.152 531.337 350.827C548.042 308.502 504.059 237.491 472.192 183.045ZM194.756 407.925H156.14L182.345 398.651V393.232H194.756V407.925Z" fill="#F8F8F8"/>
<path d="M310 62.3693C309.996 62.0327 310.014 61.6962 310.054 61.362C308.826 63.4168 307.229 68.077 306.968 68.9366L307.015 69.0373L310 62.3693Z" fill="#F8F8F8"/>
<path d="M114.774 520.267H93.7756V545.16H62.9889V520.267H0V510.866L72.7771 411.309H93.7756V493.743H114.774V520.267ZM62.9889 493.743V462.726L40.9774 493.743H62.9889Z" fill="#D3D3D3"/>
<path d="M132.305 478.439C132.305 439.875 143.515 409.469 182.621 409.469C221.532 409.469 232.36 439.875 232.36 478.439C232.36 516.802 221.559 547 182.621 547C143.515 547 132.305 516.802 132.305 478.439ZM201.613 478.439C201.613 455.179 197.125 437.223 182.654 437.223C167.975 437.223 162.883 455.179 162.883 478.439C162.883 501.492 167.975 519.045 182.654 519.045C197.125 519.072 201.613 501.492 201.613 478.439Z" fill="#D3D3D3"/>
<path d="M358.988 520.267H337.989V545.16H307.209V520.267H244.2V510.866L316.991 411.309H337.989V493.743H358.988V520.267ZM307.209 493.743V462.726L285.191 493.743H307.209Z" fill="#D3D3D3"/>
<path d="M359.692 271.428C360.269 276.921 372.392 513.767 372.392 513.767H359.692L297.938 290.761L359.692 271.428Z" fill="black"/>
<path d="M366.569 247.597C368.173 279.956 354.4 306.461 330.483 306.461C297.65 306.461 254.183 285.51 242.222 273.685C239.236 282.522 196.89 393.83 196.89 393.83H179.354C179.354 393.83 190.591 264.23 211.656 230.99C218.587 221.751 265.273 222.093 293.846 229.023C316.528 243.386 358.74 249.799 366.569 247.597Z" fill="black"/>
<path d="M283.333 55.1976C284.074 54.7488 284.939 54.5466 285.802 54.6201C288.371 54.8014 292.571 61.597 292.571 67.0966C292.571 72.5963 291.021 74.6645 291.491 78.6599C291.961 82.6554 302.124 136.832 302.124 140.136C304.116 140.14 306.107 140.012 308.082 139.753" stroke="black" stroke-width="2.5" stroke-linecap="round" stroke-linejoin="round"/>
<path d="M337.976 114.438C348.253 115.593 355.653 122.603 360.886 132.864" stroke="black" stroke-width="2.5" stroke-miterlimit="10" stroke-linecap="round"/>
<path d="M303.393 152.149C308.089 137.645 314.489 125.034 322.794 118.675" stroke="black" stroke-width="2.5" stroke-miterlimit="10" stroke-linecap="round"/>
<path d="M366.796 148.819C377.054 187.255 370.399 244.421 366.568 247.597C360.772 252.405 298.977 236.181 293.845 229.023C291.712 226.068 292.148 205.849 295.978 183.179" stroke="black" stroke-width="2.5" stroke-miterlimit="10" stroke-linecap="round"/>
<path d="M317.192 146.898C314.462 147.825 298.448 154.076 298.448 154.076C298.18 150.853 285.869 86.9261 285.111 83.0112C286.664 79.1037 287.433 74.9279 287.372 70.7227C287.372 60.2271 283.112 51.7057 277.859 51.7057C272.606 51.7057 268.352 60.2271 268.352 70.7227C268.278 75.1157 269.123 79.4756 270.834 83.5216C270.244 91.5125 264.944 167.386 275.759 178.204C286.788 189.243 313.013 180.003 329.973 172.449" stroke="black" stroke-width="2.5" stroke-linecap="round" stroke-linejoin="round"/>
<path d="M305.3 73.73L295.25 71.059L293.385 78.0878L303.436 80.7588L305.3 73.73Z" fill="black"/>
<path d="M354.07 131.158C359.806 131.83 364.516 133.844 366.602 137.873C374.177 152.592 344.182 179.11 335.883 177.136C327.584 175.162 314.2 145.522 316.702 140.203C317.413 138.679 321.217 136.658 326.443 134.892" stroke="black" stroke-width="2.5" stroke-miterlimit="10" stroke-linecap="round"/>
<path d="M322.794 118.675V114.511" stroke="black" stroke-width="2.5" stroke-linecap="round" stroke-linejoin="round"/>
<path d="M337.976 106.729V126.726C337.976 127.935 334.4 128.707 330.724 128.821" stroke="black" stroke-width="2.5" stroke-linecap="round" stroke-linejoin="round"/>
<path d="M341.437 100.302C340.527 102.568 339.366 104.723 337.976 106.729" stroke="black" stroke-width="2.5" stroke-linecap="round" stroke-linejoin="round"/>
<path d="M328.899 114.041C327.603 114.482 326.243 114.709 324.874 114.713C313.925 114.713 305.056 100.35 305.056 82.6352C305.035 78.0094 305.669 73.4039 306.941 68.9567" stroke="black" stroke-width="2.5" stroke-linecap="round" stroke-linejoin="round"/>
<path d="M338.432 94.7962C338.821 98.4559 340.203 100.302 341.437 100.302C342.893 100.302 346.731 99.2952 349.199 99.2952C373.445 99.2952 401.917 124.349 456.54 124.349C485.073 124.349 529.847 117.144 529.847 75.2017C529.847 52.5519 521.703 25.1814 478.652 25.1814C451.314 25.1814 432.16 38.6115 409.699 38.6115C380.852 38.6115 369.728 28.1562 349.796 28.1562C335.601 28.1562 303.653 36.3888 303.653 57.9575C303.653 66.1498 306.216 68.5269 307.008 68.95C307.269 68.077 308.866 63.4302 310.094 61.3754C309.878 64.3862 310.739 67.3757 312.522 69.8095" stroke="black" stroke-width="2.5" stroke-linecap="round" stroke-linejoin="round"/>
<path d="M334.26 83.0516C334.822 83.6915 335.346 84.3642 335.83 85.0661" stroke="black" stroke-width="2.5" stroke-linecap="round" stroke-linejoin="round"/>
<path d="M333.461 86.0128C334.293 85.4451 335.278 85.1431 336.285 85.1466C337.437 85.1457 338.554 85.5379 339.452 86.2584C340.351 86.9788 340.977 87.9845 341.227 89.1092C341.477 90.2339 341.336 91.4105 340.828 92.4444C340.32 93.4784 339.475 94.308 338.432 94.7961" stroke="black" stroke-width="2.5" stroke-linecap="round" stroke-linejoin="round"/>
<path d="M287.372 70.7227C287.414 74.5332 286.799 78.3224 285.554 81.9234C291.263 82.5949 295.396 83.0851 295.396 83.0851L299.334 67.1503C299.334 67.1503 293.51 64.7262 286.258 61.7783C287.014 64.699 287.389 67.7056 287.372 70.7227Z" fill="black"/>
<path d="M268.352 70.7227C268.352 64.7934 269.694 59.5019 271.841 56.0168C265.581 53.5524 260.315 51.5513 258.819 51.1753C254.465 50.1009 248.085 76.4305 252.318 77.4848C254.029 77.9078 261.388 78.8949 269.553 79.9291C268.742 76.9281 268.338 73.8315 268.352 70.7227Z" fill="black"/>
<path d="M194.756 393.232V407.925H156.141L182.352 398.651V393.232" stroke="black" stroke-width="2.5" stroke-linecap="round" stroke-linejoin="round"/>
<path d="M371.721 513.21V527.903H337.131L360.605 518.629V513.21" stroke="black" stroke-width="2.5" stroke-linecap="round" stroke-linejoin="round"/>
</g>
<defs>
<clipPath id="clip0">
<rect width="535" height="547" fill="white"/>
</clipPath>
</defs>
</svg>
